<svg xmlns="http://www.w3.org/2000/svg" width="90" height="84" viewBox="0 0 45 42"><defs><clipPath id="dy89a"><path d="M5.21.12h14.707v41.883H5.21z"/></clipPath><clipPath id="dy89b"><path d="M37.08 34.17h7.828v7.828H37.08z"/></clipPath><clipPath id="dy89c"><path d="M0 17.02h27.805v7.75H0z"/></clipPath></defs><g clip-path="url(#dy89a)"><path fill="#fff" d="M19.837 5.032l-6.624 33.67c-.378 1.919-2.036 3.3-3.962 3.3-2.55 0-4.461-2.37-3.961-4.912l6.624-33.669C12.29 1.501 13.95.12 15.875.12c2.55 0 4.462 2.371 3.962 4.912"/></g><path fill="#fff" d="M38.918 15.848l-4.691 22.894C33.838 40.636 32.134 42 30.154 42c-2.62 0-4.586-2.34-4.072-4.848l4.691-22.894C31.162 12.364 32.866 11 34.846 11c2.62 0 4.586 2.34 4.072 4.848"/><g clip-path="url(#dy89b)"><path fill="#fff" d="M44.908 38.084a3.914 3.914 0 11-7.828 0 3.914 3.914 0 017.828 0"/></g><path fill="#fff" d="M41 4a4 4 0 11-8 0 4 4 0 018 0"/><g clip-path="url(#dy89c)"><path fill="#fff" d="M4.25 17.02h19.34c2.658 0 4.653 2.212 4.132 4.587l-.034.115c-.394 1.794-2.123 3.048-4.132 3.048H4.216c-2.66 0-4.654-2.18-4.133-4.555l.034-.13C.51 18.29 2.24 17.02 4.249 17.02"/></g></svg>