<svg xmlns="http://www.w3.org/2000/svg" width="244" height="16" viewBox="0 0 244 16">
  <path fill="#FFF" fill-rule="evenodd" d="M141.582431,11.9431694 C141.777657,11.8032787 141.879982,11.5517444 141.879982,11.1831862 L141.879982,4.81546868 C141.879982,4.56393443 141.766886,4.35544346 141.524537,4.1899958 C141.282188,4.02185792 140.901162,3.93846154 140.396268,3.93846154 L130.259353,3.93846154 L130.330711,11.1831862 C130.330711,11.4777638 130.433037,11.7064313 130.651151,11.8799496 C130.858493,12.0507776 131.227402,12.1368642 131.732296,12.1368642 L140.454163,12.1368642 C141.006179,12.1368642 141.375088,12.0749895 141.582431,11.9431694 Z M97.4493544,15.7995797 L97.4493544,0.138545607 L105.248949,0.138545607 L114.44205,11.7978983 L114.52014,12.0010088 L114.52014,0.138545607 L119.019751,0.138545607 L119.019751,15.7995797 L111.288822,15.7995797 L102.004167,4.05952081 L101.948965,3.9196301 L101.948965,15.7995797 L97.4493544,15.7995797 Z M232.710994,15.8627995 L232.710994,3.77570408 L225.991199,3.77570408 L225.991199,0.138545607 L243.996374,0.138545607 L243.996374,1.72307692 C244.054268,2.95519126 243.421468,3.696343 241.914866,3.77570408 L237.496038,3.77570408 L237.496038,12.839008 C237.428719,14.6495166 236.736679,15.9125683 234.540728,15.8627995 L232.710994,15.8627995 Z M202.382379,13.4375788 L202.382379,0.138545607 L215.097617,0.138545607 C216.177416,0.138545607 217.074106,0.217906683 217.790382,0.372593527 C218.502618,0.535350988 219.088295,0.798991173 219.537987,1.16620429 C219.998449,1.53476251 220.32966,2.0284153 220.538349,2.65657839 C220.756463,3.28070618 220.861481,4.07431694 220.861481,5.04144599 C220.861481,6.00050441 220.779351,6.804876 220.605668,7.46128625 C220.445449,8.10962589 220.16944,8.63825137 219.815341,9.04043716 C219.446433,9.43724254 218.963081,9.7358554 218.362595,9.92013451 C217.752683,10.1044136 216.996016,10.201261 216.096633,10.201261 L216.096633,10.2752417 L222.343848,15.8627995 L218.836521,15.8627995 C217.316455,15.7578815 215.856976,15.5238335 214.739479,14.4356452 L207.825804,7.29852879 L214.695048,7.29852879 C215.164936,7.29852879 215.591739,7.16132829 215.959302,6.88020177 C216.317439,6.59638504 216.501894,6.19016393 216.501894,5.65615805 C216.501894,5.18806221 216.32821,4.80470786 215.970073,4.506095 C215.625399,4.20613703 215.213406,4.05952081 214.752943,4.05952081 L207.168769,4.05952081 L207.168769,15.8627995 L205.328264,15.8627995 C203.592777,15.7578815 202.511632,15.0503573 202.382379,13.4375788 Z M178.695469,12.4314418 L178.695469,0.138545607 L195.492939,0.138545607 L195.492939,3.77570408 L183.469742,3.77570408 L183.469742,6.42017654 L195.401385,6.42017654 L195.401385,9.59730979 L183.469742,9.59730979 L183.469742,10.7527533 C183.469742,11.846322 183.907316,12.2000841 184.816124,12.2000841 L195.492939,12.2000841 L195.492939,15.8627995 L182.181254,15.8627995 C180.088975,15.8964271 178.844917,14.8432114 178.695469,12.4314418 Z M47.540296,14.759815 C46.7230417,14.0294241 46.3204733,12.9493064 46.3204733,11.5167718 C46.3204733,11.4643127 46.3204733,10.7056747 46.3204733,9.24220261 L46.3204733,6.7591425 C46.3204733,5.29432535 46.3204733,4.53972257 46.3204733,4.50071459 C46.3204733,3.05741908 46.7230417,1.97057587 47.540296,1.23480454 C48.3454328,0.507103825 49.6002614,0.138545607 51.291318,0.138545607 L64.4629795,0.138545607 L64.4629795,4.00168138 L51.8191,4.00168138 C51.3586372,4.00168138 51.0247343,4.07431694 50.7958492,4.24245481 C50.5777352,4.39848676 50.4727174,4.597562 50.4727174,4.83968054 L50.4175157,6.13635982 L50.4175157,9.86229508 L50.4727174,11.0970996 C50.4727174,11.3916772 50.5777352,11.6257251 50.7958492,11.7978983 C51.0045385,11.9714166 51.3492125,12.0588483 51.8191,12.0588483 L64.4629795,12.0588483 L64.4629795,15.8627995 L51.291318,15.8627995 C49.6002614,15.8627995 48.3454328,15.4955864 47.540296,14.759815 Z M23.0011258,12.4314418 L23.0011258,0.138545607 L39.795903,0.138545607 L39.795903,3.77570408 L27.7767451,3.77570408 L27.7767451,6.42017654 L39.7178128,6.42017654 L39.7178128,9.59730979 L27.7767451,9.59730979 L27.7767451,10.7527533 C27.7767451,11.846322 28.2237441,12.2000841 29.120435,12.2000841 L39.795903,12.2000841 L39.795903,15.8627995 L26.4882569,15.8627995 C24.3919391,15.8964271 23.1613454,14.8432114 23.0011258,12.4314418 Z M6.51601668,12.839008 L6.51601668,3.77570408 L2.09718883,3.77570408 C0.578469198,3.696343 -0.0422132031,2.95519126 0.00221742434,1.72307692 L0.00221742434,0.138545607 L18.0073926,0.138545607 L18.0073926,3.77570408 L11.2889432,3.77570408 L11.2889432,15.8627995 L9.47132659,15.8627995 C7.26191267,15.9125683 6.57121837,14.6495166 6.51601668,12.839008 Z M70.9767788,15.8627995 L70.9767788,0.138545607 L75.7618227,0.138545607 L75.7618227,8.48894493 C76.3017221,7.50567465 77.4299908,5.79873897 79.7646183,5.79873897 L85.9647104,5.79873897 L85.9647104,0.138545607 L90.7403297,0.138545607 L90.7403297,15.8627995 L85.9647104,15.8627995 L85.9647104,9.99949559 L75.7618227,9.99949559 L75.7618227,15.8627995 L70.9767788,15.8627995 Z M159.032897,15.9704077 L150.589731,0.138545607 L154.063398,0.138545607 C155.316881,0.138545607 156.111246,0.556872636 156.547474,1.39218159 L162.015134,11.9189575 L167.364313,1.6208491 C167.905558,0.435813367 169.044598,0.138545607 170.066503,0.138545607 L173.437845,0.138545607 L165.154899,15.9704077 L159.032897,15.9704077 Z M131.997533,15.9704077 C131.125077,15.9461959 130.364371,15.9018075 129.730225,15.8211013 C129.100118,15.7417402 128.58176,15.6072299 128.154957,15.4189155 C127.740271,15.2346364 127.371362,14.9642707 127.028035,14.6199243 C126.636237,14.2648172 126.372346,13.8693569 126.233669,13.4537201 C126.096338,13.0286675 126.015555,12.500042 126.015555,11.8611181 L126.015555,0.0686002522 C126.924363,0.0390079865 134.274266,0 136.036681,0 C137.785632,0 139.132015,0.0134510298 140.051594,0.0336275746 C140.97252,0.0632198403 141.753422,0.121059269 142.374104,0.20714586 C143.00825,0.294577554 143.536032,0.425052543 143.962836,0.609331652 C144.377522,0.788230349 144.757202,1.04514502 145.100529,1.37873056 C145.482902,1.73652795 145.75891,2.13871375 145.894895,2.57452711 C146.04569,3.0184111 146.113009,3.55779739 146.113009,4.20075662 C146.113009,5.71937789 146.113009,7.51105507 146.113009,9.58116856 L146.113009,11.8611181 C146.113009,12.500042 146.04569,13.0286675 145.894895,13.4537201 C145.75891,13.8693569 145.482902,14.2648172 145.100529,14.6199243 C144.757202,14.9642707 144.388293,15.2346364 143.974953,15.4189155 C143.571038,15.6072299 143.055374,15.7417402 142.431999,15.8211013 C141.822087,15.9018075 141.074845,15.9461959 140.188925,15.9704077 C139.303005,15.9946196 137.935081,16 136.094576,16 C134.25407,16 132.883453,15.9946196 131.997533,15.9704077 L131.997533,15.9704077 Z"/>
</svg>
